<?xml version="1.0" standalone="no"?>
<!DOCTYPE svg PUBLIC "-//W3C//DTD SVG 20010904//EN"
 "http://www.w3.org/TR/2001/REC-SVG-20010904/DTD/svg10.dtd">
<svg version="1.0" xmlns="http://www.w3.org/2000/svg"
 width="300.000000pt" height="143.000000pt" viewBox="0 0 300.000000 143.000000"
 preserveAspectRatio="xMidYMid meet">
<metadata>
Created by potrace 1.10, written by Peter Selinger 2001-2011
</metadata>
<g transform="translate(0.000000,143.000000) scale(0.100000,-0.100000)"
fill="#000000" stroke="none">
<path d="M1457 1399 c-15 -11 -27 -27 -27 -35 0 -8 -6 -14 -14 -14 -8 0 -24
-9 -37 -20 -19 -15 -20 -19 -8 -20 9 0 24 -11 33 -25 9 -14 23 -25 31 -25 21
0 19 -17 -3 -29 -15 -8 -23 -4 -41 20 -30 41 -82 61 -156 62 -50 1 -71 -5
-120 -31 -32 -18 -67 -32 -77 -32 -21 0 -25 -35 -5 -43 8 -3 11 -20 9 -50 -3
-40 -7 -47 -30 -52 -38 -8 -94 11 -114 38 l-18 22 0 -27 c0 -43 18 -77 47 -90
16 -7 39 -24 52 -38 l24 -25 11 32 c6 18 20 40 30 50 10 10 16 13 13 7 -4 -6
2 -28 13 -49 11 -21 17 -41 14 -44 -3 -3 -34 -6 -68 -6 -52 0 -70 5 -105 28
-82 54 -103 127 -52 178 35 34 71 39 71 9 0 -13 13 -26 40 -39 l40 -19 0 23
c0 62 -83 101 -153 72 -53 -23 -79 -69 -74 -132 4 -44 2 -52 -24 -76 -21 -20
-29 -36 -29 -61 0 -18 4 -28 8 -22 15 22 58 44 87 44 16 0 55 -9 85 -21 45
-17 68 -20 125 -15 84 7 86 7 153 0 29 -3 58 -2 65 4 7 5 21 6 32 1 11 -4 46
-8 77 -8 50 -1 62 3 90 28 l32 29 37 -30 c36 -29 41 -30 106 -24 37 3 74 5 81
5 14 -1 114 -1 140 0 9 1 49 -1 87 -5 56 -4 82 -1 129 15 74 26 102 26 144 1
l32 -20 0 26 c0 15 -12 38 -29 54 -25 25 -28 34 -24 77 7 87 -62 153 -147 139
-41 -6 -80 -46 -80 -81 l0 -23 40 19 c27 13 40 26 40 39 0 22 17 25 53 9 26
-12 47 -47 47 -80 0 -51 -60 -118 -126 -139 -33 -11 -118 -9 -130 2 -2 3 6 24
19 47 26 45 36 43 54 -14 l10 -30 25 28 c14 15 31 27 37 27 27 0 61 49 61 87
l0 38 -18 -22 c-20 -27 -76 -46 -114 -38 -23 5 -27 12 -30 52 -2 30 1 47 9 50
20 8 16 43 -5 43 -10 0 -45 14 -77 32 -49 26 -70 32 -120 31 -33 -1 -73 -6
-90 -13 -36 -14 -75 -48 -75 -67 0 -18 15 -16 31 3 12 14 14 14 21 -5 10 -29
52 -27 103 4 64 40 132 30 160 -24 21 -41 20 -85 -1 -77 -9 3 -19 6 -24 6 -4
0 -11 11 -14 24 -9 37 -34 56 -71 56 -38 0 -65 -28 -65 -70 0 -32 -19 -66 -20
-35 -1 32 -21 50 -98 89 -68 34 -90 56 -57 56 8 0 22 11 31 25 9 14 24 25 33
25 12 1 11 5 -8 20 -13 11 -28 20 -35 20 -6 0 -16 10 -21 22 -6 11 -19 27 -31
35 -18 12 -24 11 -47 -8z m46 -70 c-1 -13 -5 -40 -9 -60 -5 -29 -1 -41 19 -65
18 -22 27 -45 29 -80 3 -45 1 -50 -27 -65 -26 -15 -33 -15 -60 -2 -29 14 -30
17 -26 66 2 36 10 60 27 80 27 32 30 55 12 104 -10 29 -10 36 2 43 22 14 35 6
33 -21z m-254 -94 c54 -31 89 -32 100 -3 l8 21 16 -23 c16 -23 15 -24 -34 -46
-39 -19 -51 -29 -55 -53 -8 -39 -24 -30 -24 12 0 48 -24 77 -65 77 -32 0 -65
-21 -65 -41 0 -12 -37 -49 -50 -49 -14 0 -12 51 4 79 30 54 96 65 165 26z
m-31 -57 c22 -22 13 -34 -23 -30 -47 6 -46 38 1 41 5 1 15 -4 22 -11z m590 -9
c2 -12 -6 -18 -32 -21 -37 -4 -46 8 -24 30 17 17 52 11 56 -9z m-409 -51 c-4
-24 -10 -53 -14 -66 -6 -18 -4 -21 9 -16 21 8 66 -3 66 -16 0 -20 -65 -50
-107 -50 -63 0 -74 7 -61 36 7 14 17 23 24 20 19 -7 34 15 34 50 0 29 32 84
49 84 4 0 4 -19 0 -42z m195 23 c9 -10 20 -36 23 -57 7 -45 19 -65 37 -58 13
5 39 -40 29 -50 -4 -3 -29 -6 -57 -6 -51 0 -116 28 -116 50 0 13 45 24 66 16
13 -5 15 -2 9 21 -15 57 -22 103 -15 103 4 0 15 -8 24 -19z m-424 -11 c0 -5
11 -10 25 -10 28 0 31 -13 11 -48 -11 -20 -14 -21 -25 -9 -17 21 -32 77 -20
77 5 0 9 -4 9 -10z m625 -57 l-18 -26 -13 24 c-20 36 -17 47 14 51 33 4 40
-14 17 -49z m78 36 c12 -7 23 -13 25 -14 2 -2 -5 -20 -16 -42 -26 -49 -72 -83
-114 -83 -32 1 -32 1 -13 16 11 8 30 12 42 9 25 -6 42 12 19 21 -13 5 -12 10
5 37 10 18 19 40 19 50 0 20 4 21 33 6z m-728 -43 c20 -42 20 -44 3 -55 -24
-15 -34 -8 -59 41 -17 33 -18 42 -7 49 26 17 43 7 63 -35z m123 -33 c-4 -31
-17 -38 -41 -21 -15 12 -15 15 5 46 18 29 23 31 30 18 5 -9 8 -28 6 -43z m483
5 c7 -13 4 -20 -11 -28 -11 -6 -25 -8 -30 -5 -11 7 -13 45 -3 71 6 16 7 15 20
-2 8 -10 19 -27 24 -36z m-551 -66 c-40 -4 -49 4 -25 22 15 11 21 11 37 -3 18
-15 18 -16 -12 -19z"/>
<path d="M2250 795 c0 -8 12 -15 28 -17 l27 -3 0 -233 c0 -127 2 -232 5 -232
4 0 11 5 17 11 8 8 21 8 48 -1 80 -26 166 15 209 101 28 57 33 101 15 146 -33
87 -134 109 -209 46 l-30 -25 0 109 0 108 -55 2 c-40 1 -55 -2 -55 -12z m269
-219 c46 -46 37 -164 -16 -206 -29 -22 -79 -26 -118 -8 -24 11 -25 15 -25 95
0 96 9 119 53 139 39 17 75 10 106 -20z"/>
<path d="M37 794 c-14 -15 -7 -23 25 -26 l31 -3 -2 -200 c-2 -121 -7 -205 -13
-212 -6 -7 -19 -13 -29 -13 -11 0 -19 -4 -19 -10 0 -6 32 -10 75 -10 43 0 75
4 75 10 0 6 -8 10 -18 10 -39 0 -42 17 -42 219 l0 196 72 -110 c39 -60 105
-162 145 -225 41 -63 77 -115 81 -115 4 0 9 104 12 230 l5 230 28 3 c15 2 27
9 27 15 0 9 -23 13 -75 13 -54 0 -75 -4 -75 -13 0 -7 11 -13 25 -13 14 0 26
-1 27 -2 1 -2 4 -76 7 -166 6 -152 2 -186 -13 -145 -4 9 -53 88 -109 175 -100
157 -101 158 -138 158 -20 0 -49 3 -65 6 -16 3 -32 2 -37 -2z"/>
<path d="M572 771 c-8 -4 -12 -19 -10 -32 2 -19 9 -24 33 -24 33 0 45 25 25
50 -14 17 -29 19 -48 6z"/>
<path d="M510 626 c0 -12 7 -16 28 -14 l27 3 0 -214 0 -213 -35 -29 c-37 -31
-27 -38 20 -14 17 9 40 34 52 58 20 38 23 59 26 235 l4 192 -30 0 c-16 0 -44
3 -61 6 -25 5 -31 3 -31 -10z"/>
<path d="M780 627 c-13 -7 -31 -24 -39 -39 -13 -22 -13 -29 -2 -42 15 -18 29
-20 49 -7 12 7 12 12 0 30 -11 20 -11 24 6 37 36 26 74 17 95 -23 18 -36 14
-73 -9 -73 -52 0 -126 -24 -152 -50 -39 -39 -39 -100 -2 -129 37 -29 72 -26
127 9 l47 30 0 -25 c0 -24 3 -25 55 -25 30 0 55 5 55 10 0 6 -13 10 -30 10
l-30 0 0 104 c0 56 -5 117 -11 135 -19 54 -99 78 -159 48z m120 -181 c0 -37
-5 -48 -31 -70 -39 -33 -83 -34 -104 -2 -34 52 25 112 113 115 20 1 22 -4 22
-43z"/>
<path d="M1040 624 c0 -7 12 -14 28 -16 l27 -3 0 -130 0 -130 -27 -3 c-16 -2
-28 -8 -28 -13 0 -5 38 -9 85 -9 50 0 85 4 85 10 0 6 -13 10 -30 10 l-30 0 0
90 c0 98 10 132 45 148 19 9 28 7 48 -8 27 -22 47 -11 47 25 0 54 -57 60 -106
11 l-34 -34 0 32 c0 31 0 31 -55 32 -38 0 -55 -3 -55 -12z"/>
<path d="M1402 623 c-38 -19 -52 -57 -29 -80 25 -25 50 -9 42 26 -5 23 -2 32
14 40 46 25 83 3 96 -57 7 -36 11 -34 -78 -52 -81 -16 -117 -49 -117 -105 0
-71 62 -105 129 -71 15 8 33 22 40 30 20 24 34 19 27 -9 -6 -25 -5 -25 54 -25
33 0 60 4 60 10 0 6 -13 10 -29 10 l-29 0 -4 118 c-4 124 -13 152 -55 171 -34
16 -83 13 -121 -6z m128 -177 c0 -39 -4 -48 -33 -70 -44 -34 -82 -34 -103 -1
-14 21 -14 30 -4 55 7 17 13 30 14 30 0 0 19 7 41 15 22 8 50 14 63 15 20 0
22 -5 22 -44z"/>
<path d="M1668 634 c-12 -12 2 -24 28 -24 l24 0 0 -135 0 -135 -24 0 c-14 0
-28 -4 -31 -10 -4 -6 27 -10 84 -10 54 0 91 4 91 10 0 6 -13 10 -30 10 l-30 0
0 109 c0 106 1 110 26 130 34 27 76 27 100 0 16 -18 19 -37 19 -128 l0 -106
-27 -3 c-16 -2 -28 -8 -28 -13 0 -5 38 -9 85 -9 50 0 85 4 85 10 0 6 -13 10
-30 10 l-30 0 0 101 c0 55 4 108 10 118 12 24 64 45 93 37 36 -9 47 -47 47
-156 l0 -100 -30 0 c-16 0 -30 -4 -30 -10 0 -6 35 -10 85 -10 50 0 85 4 85 10
0 6 -13 10 -30 10 l-30 0 0 121 0 121 -30 30 c-28 27 -36 30 -77 25 -30 -3
-54 -13 -70 -29 l-25 -25 -28 29 c-38 38 -95 39 -139 2 -30 -25 -31 -25 -31
-5 0 17 -6 21 -32 21 -18 0 -42 3 -53 6 -11 3 -24 2 -27 -2z"/>
<path d="M2732 620 c-28 -17 -33 -25 -30 -53 2 -22 9 -33 22 -35 25 -5 44 14
28 30 -16 16 -15 23 4 42 41 41 104 5 104 -60 0 -30 -2 -32 -51 -38 -29 -4
-69 -16 -91 -27 -62 -32 -77 -101 -32 -146 21 -21 32 -25 65 -20 22 3 55 17
74 32 l35 26 0 -25 c0 -25 3 -26 55 -26 56 0 77 16 28 22 l-28 3 -5 122 c-4
109 -7 125 -27 144 -31 32 -108 37 -151 9z m128 -172 c0 -48 -5 -57 -40 -81
-49 -34 -100 -12 -100 42 0 33 23 56 70 69 65 19 70 16 70 -30z"/>
<path d="M175 96 c-23 -34 -6 -66 36 -66 23 0 30 4 27 17 -2 9 -9 18 -16 21
-7 2 -10 -2 -6 -12 4 -10 1 -16 -9 -16 -22 0 -30 17 -23 46 6 24 30 33 39 14
3 -6 4 -5 3 2 -5 23 -34 20 -51 -6z"/>
<path d="M292 74 c0 -26 5 -44 12 -44 7 0 10 14 8 40 -3 24 0 40 6 40 17 0 25
-20 13 -34 -14 -17 -4 -46 17 -46 13 0 12 3 -3 20 -10 11 -13 20 -7 20 13 0
17 39 5 41 -51 9 -52 8 -51 -37z"/>
<path d="M408 75 c-2 -35 0 -45 12 -45 11 0 15 12 15 45 0 27 -5 45 -11 45 -7
0 -14 -20 -16 -45z"/>
<path d="M618 74 l-3 -45 35 3 c30 3 35 7 38 32 4 33 -7 48 -41 51 -23 3 -25
-1 -29 -41z m55 14 c13 -20 2 -48 -18 -48 -11 0 -15 10 -15 36 0 37 14 42 33
12z"/>
<path d="M825 75 c0 -29 4 -45 13 -45 6 0 12 9 12 20 0 12 7 20 16 20 11 0 15
-6 11 -20 -3 -11 0 -20 6 -20 7 0 12 18 12 45 0 28 -4 45 -11 45 -7 0 -10 -8
-7 -20 4 -14 0 -20 -11 -20 -9 0 -16 8 -16 20 0 11 -6 20 -12 20 -9 0 -13 -16
-13 -45z"/>
<path d="M973 75 c-13 -29 -16 -45 -9 -45 6 0 12 10 13 21 2 24 10 35 19 27 3
-3 6 -15 7 -27 1 -11 7 -21 14 -21 9 0 8 11 -4 45 -8 25 -16 45 -17 45 -1 0
-11 -20 -23 -45z"/>
<path d="M1085 74 c0 -24 5 -44 10 -44 6 0 9 17 7 40 -3 24 0 40 6 40 17 0 25
-21 14 -32 -13 -13 2 -48 20 -48 7 0 6 5 -2 15 -10 12 -10 18 0 30 16 19 2 36
-32 40 -21 2 -23 -1 -23 -41z"/>
<path d="M1205 74 c0 -41 2 -44 28 -44 37 0 59 42 35 67 -9 8 -27 17 -40 18
-21 3 -23 -1 -23 -41z m43 27 c19 -12 11 -55 -10 -59 -15 -3 -18 4 -18 32 0
37 5 42 28 27z"/>
<path d="M1477 113 c-14 -13 -6 -41 13 -46 11 -3 20 -11 20 -17 0 -7 -8 -10
-20 -7 -11 3 -20 1 -20 -4 0 -15 47 -10 53 5 6 16 -11 36 -30 36 -16 0 -17 16
-2 26 6 3 15 0 20 -7 7 -11 9 -10 9 4 0 17 -30 24 -43 10z"/>
<path d="M1575 75 c0 -27 5 -45 12 -45 6 0 9 9 6 20 -4 16 0 20 17 20 17 0 21
-4 17 -20 -3 -11 0 -20 6 -20 7 0 12 18 12 45 0 27 -5 45 -12 45 -6 0 -9 -9
-6 -20 4 -15 0 -20 -17 -20 -17 0 -20 4 -15 20 4 13 2 20 -7 20 -9 0 -13 -14
-13 -45z"/>
<path d="M1705 75 c0 -29 4 -45 13 -45 8 0 12 16 12 45 0 29 -4 45 -12 45 -9
0 -13 -16 -13 -45z"/>
<path d="M1788 74 c-2 -27 1 -44 8 -44 6 0 9 13 7 33 l-4 32 20 -25 c11 -14
21 -28 21 -32 0 -5 5 -8 10 -8 13 0 -30 78 -47 84 -7 3 -12 -11 -15 -40z"/>
<path d="M1915 75 c0 -44 1 -45 33 -45 24 0 32 4 31 18 0 10 -3 12 -6 5 -7
-19 -43 -16 -43 3 0 10 6 14 15 10 8 -3 15 -1 15 4 0 6 -7 10 -15 10 -8 0 -15
4 -15 9 0 17 20 23 35 11 12 -10 15 -9 15 4 0 11 -9 16 -32 16 -32 0 -33 -1
-33 -45z"/>
<path d="M2115 75 c0 -44 1 -45 32 -45 31 0 32 2 31 38 -1 40 -11 52 -43 52
-17 0 -20 -7 -20 -45z m48 28 c4 -3 2 -12 -4 -19 -7 -8 -7 -14 1 -19 15 -9 12
-25 -5 -25 -10 0 -15 11 -15 35 0 33 8 43 23 28z"/>
<path d="M2240 75 c0 -25 5 -45 10 -45 6 0 10 18 10 40 0 22 4 40 9 40 17 0
23 -20 12 -34 -15 -17 -4 -46 17 -46 15 0 15 1 0 16 -13 14 -14 20 -5 36 13
21 -2 38 -35 38 -15 0 -18 -9 -18 -45z"/>
<path d="M2355 75 c0 -33 4 -45 15 -45 11 0 15 12 15 45 0 33 -4 45 -15 45
-11 0 -15 -12 -15 -45z"/>
<path d="M2451 106 c-7 -8 -11 -27 -9 -43 2 -23 8 -29 36 -31 27 -3 32 0 32
17 0 12 -4 21 -10 21 -5 0 -10 -7 -10 -15 0 -23 -28 -18 -35 6 -5 14 -1 27 9
38 15 14 18 14 27 1 9 -13 10 -13 6 0 -5 21 -31 24 -46 6z"/>
<path d="M2565 75 c0 -27 5 -45 12 -45 6 0 9 9 6 20 -4 16 0 20 17 20 17 0 21
-4 17 -20 -3 -11 0 -20 6 -20 7 0 12 18 12 45 0 31 -4 45 -13 45 -9 0 -11 -7
-7 -20 5 -16 2 -20 -15 -20 -17 0 -21 5 -17 20 3 11 0 20 -6 20 -7 0 -12 -18
-12 -45z"/>
<path d="M2685 111 c-12 -12 -3 -22 10 -11 12 10 16 9 21 -4 3 -9 4 -28 2 -41
-3 -15 -1 -25 6 -25 7 0 10 15 7 42 -3 38 -2 41 13 29 14 -11 16 -11 16 2 0
11 -10 15 -35 14 -20 -1 -38 -3 -40 -6z"/>
<path d="M521 70 c18 -22 34 -40 36 -40 2 0 2 19 2 43 -1 37 -2 39 -8 13 l-6
-30 -12 27 c-7 15 -20 27 -28 27 -12 0 -7 -11 16 -40z"/>
</g>
</svg>
